<svg width="89" height="83" viewBox="0 0 89 83" fill="none" xmlns="http://www.w3.org/2000/svg">
<path d="M28.0091 65.2475H26.0649C24.5167 65.2475 24.2647 64.9703 24.2647 63.6526V57.6112H23.3394V64.171C23.3394 65.9496 24.6751 66.0216 26.0973 66.0216C26.6841 66.0216 27.3358 66.0144 28.0091 65.9892V65.2475ZM29.7553 58.2988C30.173 58.2988 30.2846 58.1368 30.2846 57.6652C30.2846 57.1935 30.1622 57.0243 29.7553 57.0243C29.3485 57.0243 29.2297 57.1935 29.2297 57.6652C29.2297 58.1368 29.3377 58.2988 29.7553 58.2988ZM29.3197 66H30.1946V59.5878H29.3197V66ZM32.0393 64.477C32.0393 64.8515 32.0501 65.2187 32.0717 65.5716C32.7774 65.9424 33.6739 66.0864 34.4803 66.0864C36.5182 66.0864 37.3714 65.2907 37.3714 62.7921C37.3714 60.3402 36.5974 59.5014 34.682 59.5014C34.0735 59.5014 33.4758 59.595 32.9106 59.7426V57.1107H32.0393V64.477ZM32.9106 60.477C33.3066 60.3402 33.9115 60.225 34.4011 60.225C36.1833 60.225 36.4929 60.9955 36.4929 62.7921C36.4929 64.5131 36.0753 65.3627 34.4803 65.3627C33.9835 65.3627 33.3714 65.2727 32.9358 65.0747C32.9178 64.7687 32.9106 64.369 32.9106 64.0666V60.477ZM39.8292 66V61.5464C39.8292 61.2439 39.8364 60.8407 39.8544 60.5383C40.29 60.3402 40.9057 60.2466 41.3989 60.2466C41.5933 60.2466 41.7662 60.2538 41.9246 60.2718L41.9966 59.5302C41.8094 59.5086 41.6113 59.5014 41.3989 59.5014C40.5924 59.5014 39.6996 59.6454 38.9939 60.0162C38.9687 60.369 38.9579 60.7363 38.9579 61.1107V66H39.8292ZM45.7607 66.0864C47.8309 66.0864 48.5762 65.1467 48.5762 62.7921C48.5762 60.4266 47.8309 59.5014 45.7607 59.5014C43.6941 59.5014 42.9452 60.3942 42.9452 62.7921C42.9452 65.1935 43.6941 66.0864 45.7607 66.0864ZM45.7607 65.3483C44.317 65.3483 43.8273 64.8227 43.8273 62.7921C43.8273 60.7579 44.317 60.2394 45.7607 60.2394C47.2369 60.2394 47.6977 60.8443 47.6977 62.7921C47.6977 64.7435 47.2261 65.3483 45.7607 65.3483ZM57.8504 59.7426C57.2815 59.595 56.6875 59.5014 56.0754 59.5014C54.1636 59.5014 53.3859 60.3402 53.3859 62.7921C53.3859 65.2907 54.2428 66.0864 56.277 66.0864C57.0871 66.0864 57.98 65.9424 58.6857 65.5716C58.7073 65.2187 58.7217 64.8515 58.7217 64.477V57.1107H57.8504V59.7426ZM57.8504 60.477V64.0666C57.8504 64.369 57.8396 64.7687 57.8252 65.0747C57.3895 65.2727 56.7739 65.3627 56.277 65.3627C54.6857 65.3627 54.268 64.5131 54.268 62.7921C54.268 60.9955 54.574 60.225 56.3562 60.225C56.8495 60.225 57.4507 60.3402 57.8504 60.477ZM63.0777 66.0864C64.291 66.0864 65.0291 65.9856 65.7636 65.874L65.6844 65.1683C65.0255 65.2583 64.255 65.3483 63.4197 65.3483C61.8032 65.3483 61.4071 64.6751 61.2991 63.3609L62.8185 63.2997C63.715 63.2637 65.2343 63.1197 65.9688 62.9973C65.9796 62.8065 65.9868 62.5689 65.9868 62.3888C65.9868 60.6355 65.3999 59.5014 63.2289 59.5014C61.1227 59.5014 60.4242 60.4662 60.4242 62.7921C60.4242 64.6931 60.9787 66.0864 63.0777 66.0864ZM61.2775 62.6985C61.2775 61.0423 61.616 60.2142 63.2289 60.2142C64.6295 60.2142 65.1047 60.9055 65.1047 61.9928C65.1047 62.126 65.1011 62.3132 65.0903 62.4428C64.4998 62.5185 63.5349 62.5941 62.9733 62.6193L61.2775 62.6985ZM5.40019 80V76.5005C5.81423 76.5221 6.67832 76.5581 7.13556 76.5581H7.26518L9.21297 80H10.2931L8.23727 76.4824C9.483 76.2844 10.3003 75.6472 10.3003 74.0126C10.3003 71.8596 8.82053 71.5248 7.03835 71.5248C6.14186 71.5248 5.21657 71.6004 4.4785 71.7228V80H5.40019ZM5.40019 72.3888C6.00145 72.3096 6.60991 72.2772 7.08156 72.2772C8.76293 72.2772 9.37859 72.7633 9.37859 74.0126C9.37859 75.4311 8.5253 75.7984 7.03835 75.7984C6.55231 75.7984 6.07346 75.7948 5.40019 75.7228V72.3888ZM14.316 80.0864C15.5293 80.0864 16.2674 79.9856 17.0018 79.874L16.9226 79.1683C16.2638 79.2583 15.4933 79.3483 14.658 79.3483C13.0415 79.3483 12.6454 78.6751 12.5374 77.3609L14.0568 77.2997C14.9532 77.2637 16.4726 77.1197 17.2071 76.9973C17.2179 76.8065 17.2251 76.5689 17.2251 76.3888C17.2251 74.6355 16.6382 73.5014 14.4672 73.5014C12.361 73.5014 11.6625 74.4662 11.6625 76.7921C11.6625 78.6931 12.217 80.0864 14.316 80.0864ZM12.5158 76.6985C12.5158 75.0423 12.8542 74.2142 14.4672 74.2142C15.8677 74.2142 16.343 74.9055 16.343 75.9928C16.343 76.126 16.3394 76.3132 16.3286 76.4428C15.7381 76.5185 14.7732 76.5941 14.2116 76.6193L12.5158 76.6985ZM22.8359 79.1935C22.5263 79.2583 22.0835 79.3303 21.7558 79.3303C19.7144 79.3303 19.5668 78.3906 19.5668 76.7237C19.5668 74.9487 19.7612 74.2466 21.7666 74.2466C22.1159 74.2466 22.5515 74.3042 22.8359 74.3546L22.9079 73.685C22.5083 73.577 22.0367 73.5014 21.4714 73.5014C19.1564 73.5014 18.6811 74.6247 18.6811 76.7237C18.6811 78.5671 19.0808 80.0864 21.241 80.0864C21.9034 80.0864 22.4075 80.0036 22.9188 79.8992L22.8359 79.1935ZM24.2835 78.3402C24.2835 79.2295 24.5103 79.8056 24.9315 80.2844L25.6732 79.9028C25.3276 79.4635 25.1584 78.9703 25.1584 78.279V71.1107H24.2835V78.3402ZM27.1308 74.4158C27.8149 74.3186 28.5314 74.2322 29.2731 74.2322C30.6628 74.2322 31.0192 74.6643 31.0192 75.712V75.9964C30.0399 76.0288 29.0606 76.0648 28.2794 76.1836C27.1344 76.3564 26.6664 77.0585 26.6664 78.171C26.6664 79.5608 27.4477 80.0864 29.165 80.0864C30.1875 80.0864 31.0876 79.946 31.8437 79.5716C31.8653 79.2187 31.8797 78.8515 31.8797 78.477V75.4491C31.8797 73.8506 30.7996 73.5014 29.4351 73.5014C28.5242 73.5014 27.7825 73.6094 27.0516 73.7246L27.1308 74.4158ZM27.5341 78.1494C27.5341 77.2637 27.8545 76.9721 28.5854 76.8245C29.2587 76.6877 30.2848 76.6661 31.0192 76.6517V78.0774C31.0192 78.3798 31.012 78.7795 30.994 79.0855C30.4432 79.3015 29.8167 79.3735 29.2587 79.3735C28.0525 79.3735 27.5341 79.1359 27.5341 78.1494ZM34.6215 75.5536C34.6215 75.2511 34.6287 74.8515 34.6467 74.5491C35.0428 74.3726 35.7448 74.2394 36.1481 74.2394C37.4586 74.2394 37.7574 74.7723 37.7574 75.9892V80H38.6323V75.8344C38.6323 75.4095 38.5963 75.0099 38.4775 74.6643C39.0248 74.3726 39.698 74.2394 40.1625 74.2394C41.4694 74.2394 41.7718 74.7723 41.7718 75.9892V80H42.6431V75.8344C42.6431 74.5671 42.3587 73.5014 40.4361 73.5014C39.5576 73.5014 38.7223 73.7066 38.0815 74.0198C37.7538 73.6958 37.2354 73.5014 36.4217 73.5014C35.5252 73.5014 34.4739 73.7426 33.7862 74.0378C33.761 74.3906 33.7502 74.7579 33.7502 75.1323V80H34.6215V75.5536ZM44.6269 74.4158C45.311 74.3186 46.0275 74.2322 46.7691 74.2322C48.1589 74.2322 48.5153 74.6643 48.5153 75.712V75.9964C47.536 76.0288 46.5567 76.0648 45.7755 76.1836C44.6305 76.3564 44.1625 77.0585 44.1625 78.171C44.1625 79.5608 44.9438 80.0864 46.6611 80.0864C47.6836 80.0864 48.5837 79.946 49.3398 79.5716C49.3614 79.2187 49.3758 78.8515 49.3758 78.477V75.4491C49.3758 73.8506 48.2957 73.5014 46.9312 73.5014C46.0203 73.5014 45.2786 73.6094 44.5477 73.7246L44.6269 74.4158ZM45.0302 78.1494C45.0302 77.2637 45.3506 76.9721 46.0815 76.8245C46.7547 76.6877 47.7809 76.6661 48.5153 76.6517V78.0774C48.5153 78.3798 48.5081 78.7795 48.4901 79.0855C47.9393 79.3015 47.3128 79.3735 46.7547 79.3735C45.5486 79.3735 45.0302 79.1359 45.0302 78.1494ZM55.2031 79.1935C54.8935 79.2583 54.4507 79.3303 54.123 79.3303C52.0816 79.3303 51.934 78.3906 51.934 76.7237C51.934 74.9487 52.1284 74.2466 54.1338 74.2466C54.4831 74.2466 54.9187 74.3042 55.2031 74.3546L55.2751 73.685C54.8755 73.577 54.4039 73.5014 53.8386 73.5014C51.5236 73.5014 51.0483 74.6247 51.0483 76.7237C51.0483 78.5671 51.448 80.0864 53.6082 80.0864C54.2706 80.0864 54.7747 80.0036 55.2859 79.8992L55.2031 79.1935ZM57.1303 72.2988C57.548 72.2988 57.6596 72.1368 57.6596 71.6652C57.6596 71.1935 57.5372 71.0243 57.1303 71.0243C56.7235 71.0243 56.6047 71.1935 56.6047 71.6652C56.6047 72.1368 56.7127 72.2988 57.1303 72.2988ZM56.6947 80H57.5696V73.5878H56.6947V80ZM62.0498 80.0864C64.12 80.0864 64.8652 79.1467 64.8652 76.7921C64.8652 74.4266 64.12 73.5014 62.0498 73.5014C59.9832 73.5014 59.2343 74.3942 59.2343 76.7921C59.2343 79.1935 59.9832 80.0864 62.0498 80.0864ZM62.0498 79.3483C60.606 79.3483 60.1164 78.8227 60.1164 76.7921C60.1164 74.7579 60.606 74.2394 62.0498 74.2394C63.5259 74.2394 63.9868 74.8443 63.9868 76.7921C63.9868 78.7435 63.5151 79.3483 62.0498 79.3483ZM67.4304 75.5536C67.4304 75.2511 67.4376 74.8515 67.4556 74.5491C67.8553 74.369 68.6618 74.2358 69.1946 74.2358C70.804 74.2358 71.02 74.7831 71.02 75.9928V80H71.8949V75.8344C71.8949 74.5347 71.6717 73.5014 69.4862 73.5014C68.3341 73.5014 67.3188 73.721 66.5915 74.0378C66.5699 74.3906 66.5591 74.7579 66.5591 75.1323V80H67.4304V75.5536ZM76.2144 80.0864C77.4277 80.0864 78.1658 79.9856 78.9003 79.874L78.8211 79.1683C78.1622 79.2583 77.3917 79.3483 76.5565 79.3483C74.9399 79.3483 74.5438 78.6751 74.4358 77.3609L75.9552 77.2997C76.8517 77.2637 78.371 77.1197 79.1055 76.9973C79.1163 76.8065 79.1235 76.5689 79.1235 76.3888C79.1235 74.6355 78.5366 73.5014 76.3656 73.5014C74.2594 73.5014 73.561 74.4662 73.561 76.7921C73.561 78.6931 74.1154 80.0864 76.2144 80.0864ZM74.4142 76.6985C74.4142 75.0423 74.7527 74.2142 76.3656 74.2142C77.7662 74.2142 78.2414 74.9055 78.2414 75.9928C78.2414 76.126 78.2378 76.3132 78.227 76.4428C77.6366 76.5185 76.6717 76.5941 76.11 76.6193L74.4142 76.6985ZM83.1242 74.2358C83.711 74.2358 84.2511 74.3078 84.7299 74.3906L84.8163 73.7138C84.1323 73.5734 83.5346 73.5014 82.7281 73.5014C81.4356 73.5014 80.5103 73.8794 80.5103 75.2187C80.5103 76.5365 81.5112 76.7741 82.5193 77.0765C83.5202 77.3753 84.0891 77.5194 84.0891 78.333C84.0891 79.3375 82.9802 79.3375 82.2277 79.3375C81.6948 79.3375 81.1044 79.2727 80.5787 79.1863L80.4923 79.874C81.1692 80.0216 81.846 80.0864 82.5337 80.0864C83.9307 80.0864 84.982 79.6976 84.982 78.2826C84.982 77.0981 84.2547 76.7705 82.9658 76.3708C82.0441 76.0864 81.3852 75.9928 81.3852 75.1359C81.3852 74.2538 82.3897 74.2358 83.1242 74.2358Z" fill="#484848"/>
<path d="M29 9V0L46.5 14L65 0V9L46.5 14L29 9Z" fill="#484848"/>
<path d="M26 40.0909V9L46.5 15L68 9V40.0909L46.5 46.5L26 40.0909Z" fill="#484848" stroke="white" stroke-width="0.5"/>
<rect x="46" y="12" width="1" height="35" fill="white"/>
</svg>
